<svg xmlns="http://www.w3.org/2000/svg" viewBox="0 0 26 26" shape-rendering="crispEdges">
  <!-- ドット絵ロゴ: CHIP / TUNE 2段（ファミコンカラー） -->
  <rect width="26" height="26" fill="#f2e8d3"/>
  <rect x="5" y="7" width="3" height="1" fill="#a8433b"/>
  <rect x="9" y="7" width="1" height="1" fill="#a8433b"/>
  <rect x="12" y="7" width="1" height="1" fill="#a8433b"/>
  <rect x="14" y="7" width="4" height="1" fill="#a8433b"/>
  <rect x="19" y="7" width="3" height="1" fill="#a8433b"/>
  <rect x="4" y="8" width="1" height="1" fill="#a8433b"/>
  <rect x="9" y="8" width="1" height="1" fill="#a8433b"/>
  <rect x="12" y="8" width="1" height="1" fill="#a8433b"/>
  <rect x="15" y="8" width="2" height="1" fill="#a8433b"/>
  <rect x="19" y="8" width="1" height="1" fill="#a8433b"/>
  <rect x="22" y="8" width="1" height="1" fill="#a8433b"/>
  <rect x="4" y="9" width="1" height="1" fill="#a8433b"/>
  <rect x="9" y="9" width="4" height="1" fill="#a8433b"/>
  <rect x="15" y="9" width="2" height="1" fill="#a8433b"/>
  <rect x="19" y="9" width="3" height="1" fill="#a8433b"/>
  <rect x="4" y="10" width="1" height="1" fill="#a8433b"/>
  <rect x="9" y="10" width="1" height="1" fill="#a8433b"/>
  <rect x="12" y="10" width="1" height="1" fill="#a8433b"/>
  <rect x="15" y="10" width="2" height="1" fill="#a8433b"/>
  <rect x="19" y="10" width="1" height="1" fill="#a8433b"/>
  <rect x="5" y="11" width="3" height="1" fill="#a8433b"/>
  <rect x="9" y="11" width="1" height="1" fill="#a8433b"/>
  <rect x="12" y="11" width="1" height="1" fill="#a8433b"/>
  <rect x="14" y="11" width="4" height="1" fill="#a8433b"/>
  <rect x="19" y="11" width="1" height="1" fill="#a8433b"/>
  <rect x="4" y="15" width="4" height="1" fill="#26211f"/>
  <rect x="9" y="15" width="1" height="1" fill="#26211f"/>
  <rect x="12" y="15" width="1" height="1" fill="#26211f"/>
  <rect x="14" y="15" width="1" height="1" fill="#26211f"/>
  <rect x="17" y="15" width="1" height="1" fill="#26211f"/>
  <rect x="19" y="15" width="4" height="1" fill="#26211f"/>
  <rect x="5" y="16" width="2" height="1" fill="#26211f"/>
  <rect x="9" y="16" width="1" height="1" fill="#26211f"/>
  <rect x="12" y="16" width="1" height="1" fill="#26211f"/>
  <rect x="14" y="16" width="2" height="1" fill="#26211f"/>
  <rect x="17" y="16" width="1" height="1" fill="#26211f"/>
  <rect x="19" y="16" width="1" height="1" fill="#26211f"/>
  <rect x="5" y="17" width="2" height="1" fill="#26211f"/>
  <rect x="9" y="17" width="1" height="1" fill="#26211f"/>
  <rect x="12" y="17" width="1" height="1" fill="#26211f"/>
  <rect x="14" y="17" width="1" height="1" fill="#26211f"/>
  <rect x="16" y="17" width="2" height="1" fill="#26211f"/>
  <rect x="19" y="17" width="3" height="1" fill="#26211f"/>
  <rect x="5" y="18" width="2" height="1" fill="#26211f"/>
  <rect x="9" y="18" width="1" height="1" fill="#26211f"/>
  <rect x="12" y="18" width="1" height="1" fill="#26211f"/>
  <rect x="14" y="18" width="1" height="1" fill="#26211f"/>
  <rect x="17" y="18" width="1" height="1" fill="#26211f"/>
  <rect x="19" y="18" width="1" height="1" fill="#26211f"/>
  <rect x="5" y="19" width="2" height="1" fill="#26211f"/>
  <rect x="10" y="19" width="2" height="1" fill="#26211f"/>
  <rect x="14" y="19" width="1" height="1" fill="#26211f"/>
  <rect x="17" y="19" width="1" height="1" fill="#26211f"/>
  <rect x="19" y="19" width="4" height="1" fill="#26211f"/>
</svg>
